<svg xmlns="http://www.w3.org/2000/svg" fill="none" viewBox="0 0 32 32"><path fill="#1e293b" stroke="#1e293b" stroke-linecap="round" stroke-linejoin="round" stroke-width="1.5" d="M11.8 30h8.4c7 0 9.8-2.8 9.8-9.8v-8.4C30 2 30 2 20.2 2h-8.4C4.8 2 2 4.8 2 11.8v8.4c0 7 2.8 9.8 9.8 9.8"/><path stroke="#f1f5f9" stroke-linecap="round" stroke-linejoin="round" stroke-width="1.5" d="M2.7 18v-6c0-6.7 2.6-9.3 9.3-9.3h5M2.8 22q.5 6.8 7.2 7.2"/><path stroke="#f1f5f9" stroke-linecap="round" stroke-linejoin="round" stroke-width="1.5" d="M6 22q.1 3.9 4 4M14 29.3h6c6.7 0 9.3-2.6 9.3-9.3v-4.5"/><path stroke="#f1f5f9" stroke-width="1.5" d="M21 2.8h5c1.8 0 3.3 1.4 3.3 3.2v5q-.1 1.2-1.3 1.3h-3A5 5 0 0 1 19.8 7V3.9q.1-1 1-1.1z"/><path fill="#475569" d="M7.5 7a.5.5 0 1 1-1 0 .5.5 0 0 1 1 0M10.5 7a.5.5 0 1 1-1 0 .5.5 0 0 1 1 0M13.5 7a.5.5 0 1 1-1 0 .5.5 0 0 1 1 0M16.5 7a.5.5 0 1 1-1 0 .5.5 0 0 1 1 0M7.5 10a.5.5 0 1 1-1 0 .5.5 0 0 1 1 0M10.5 10a.5.5 0 1 1-1 0 .5.5 0 0 1 1 0M13.5 10a.5.5 0 1 1-1 0 .5.5 0 0 1 1 0M16.5 10a.5.5 0 1 1-1 0 .5.5 0 0 1 1 0M7.5 13a.5.5 0 1 1-1 0 .5.5 0 0 1 1 0M10.5 13a.5.5 0 1 1-1 0 .5.5 0 0 1 1 0M13.5 13a.5.5 0 1 1-1 0 .5.5 0 0 1 1 0M16.5 13a.5.5 0 1 1-1 0 .5.5 0 0 1 1 0M7.5 16a.5.5 0 1 1-1 0 .5.5 0 0 1 1 0M10.5 16a.5.5 0 1 1-1 0 .5.5 0 0 1 1 0M13.5 16a.5.5 0 1 1-1 0 .5.5 0 0 1 1 0M16.5 16a.5.5 0 1 1-1 0 .5.5 0 0 1 1 0M7.5 19a.5.5 0 1 1-1 0 .5.5 0 0 1 1 0M10.5 19a.5.5 0 1 1-1 0 .5.5 0 0 1 1 0M13.5 19a.5.5 0 1 1-1 0 .5.5 0 0 1 1 0M16.5 19a.5.5 0 1 1-1 0 .5.5 0 0 1 1 0M10.5 22a.5.5 0 1 1-1 0 .5.5 0 0 1 1 0M13.5 22a.5.5 0 1 1-1 0 .5.5 0 0 1 1 0M16.5 22a.5.5 0 1 1-1 0 .5.5 0 0 1 1 0M19.5 22a.5.5 0 1 1-1 0 .5.5 0 0 1 1 0M19.5 19a.5.5 0 1 1-1 0 .5.5 0 0 1 1 0M19.5 16a.5.5 0 1 1-1 0 .5.5 0 0 1 1 0M19.5 13a.5.5 0 1 1-1 0 .5.5 0 0 1 1 0M22.5 22a.5.5 0 1 1-1 0 .5.5 0 0 1 1 0M22.5 19a.5.5 0 1 1-1 0 .5.5 0 0 1 1 0M22.5 16a.5.5 0 1 1-1 0 .5.5 0 0 1 1 0M25.5 16a.5.5 0 1 1-1 0 .5.5 0 0 1 1 0M25.5 19a.5.5 0 1 1-1 0 .5.5 0 0 1 1 0M25.5 22a.5.5 0 1 1-1 0 .5.5 0 0 1 1 0M13.5 25a.5.5 0 1 1-1 0 .5.5 0 0 1 1 0M16.5 25a.5.5 0 1 1-1 0 .5.5 0 0 1 1 0"/><path fill="#475569" d="M16.5 25a.5.5 0 1 1-1 0 .5.5 0 0 1 1 0M19.5 25a.5.5 0 1 1-1 0 .5.5 0 0 1 1 0M22.5 25a.5.5 0 1 1-1 0 .5.5 0 0 1 1 0M25.5 25a.5.5 0 1 1-1 0 .5.5 0 0 1 1 0"/></svg>