<svg xmlns="http://www.w3.org/2000/svg" fill="none" width="2812" height="1398" viewBox="0 0 2812 1398"><g clip-path="url(#a)"><path fill="#fff" stroke="#fff" d="M1402.8-8h8.9v1416h-9V-8Z"/><path stroke="#D87000" stroke-width="2.5" d="M1407.2 153a25.3 25.3 0 1 0 0-50.8 25.3 25.3 0 0 0 0 50.7ZM1407.2 439.1a25.3 25.3 0 1 0 0-50.7 25.3 25.3 0 0 0 0 50.7ZM1407.2 725.3a25.3 25.3 0 1 0 0-50.7 25.3 25.3 0 0 0 0 50.7ZM1407.2 1011.5a25.3 25.3 0 1 0 0-50.7 25.3 25.3 0 0 0 0 50.7ZM1407.2 1297.6a25.3 25.3 0 1 0 0-50.6 25.3 25.3 0 0 0 0 50.6ZM489 725.3a25.3 25.3 0 1 0 0-50.7 25.3 25.3 0 0 0 0 50.7ZM489 230.4a25.3 25.3 0 1 0 0-50.7 25.3 25.3 0 0 0 0 50.7ZM489 477.9a25.3 25.3 0 1 0 0-50.7 25.3 25.3 0 0 0 0 50.7Z"/><path fill="#0047A6" d="M986.9-9.5h12v1419h-12V-9.6Z"/><path fill="#555" d="M904 564.6v266.7L672.8 698l231-133.4Z"/><path fill="#262626" d="M1017.8 463 970 545.7 887.5 498l47.7-82.7 82.6 47.7Zm-493 189.2h95.4v95.4h-95.4v-95.4Zm410.4 332.3L887.5 902l82.6-47.7 47.7 82.6-82.6 47.7Z"/><path stroke="#0047A6" stroke-width="4.9" d="M537.5 721.7v-41.5l413.6-241.8 41 23.8v474.5l-41 23.8-413.6-238.8Z"/><path fill="#555" d="M984.1 467.7 948 446.8a6 6 0 0 0-8.2 2.2L810.4 673.1H551.7a6 6 0 0 0-6 6v41.7a6 6 0 0 0 6 6h258.7l129.4 224a6 6 0 0 0 8.2 2.3l36.1-21a6 6 0 0 0 2.2-8L856.9 699.8l129.4-224a6 6 0 0 0-2.2-8.2Z"/><path stroke="#fff" stroke-linejoin="round" stroke-width="3.9" d="M322.1 71v1332.5"/><path stroke="#0047A6" stroke-linejoin="round" stroke-width="3.9" d="M.2 71h554.5V-3.7"/><path fill="#292929" d="M152.2 366 .2 434.7v38.8l152 68.5V366.1Z"/><path fill="#D9D9D9" d="M.2 473.4v158l152-89.5-152-68.5Z"/><path fill="#0047A6" d="M.2 473.4v158l152-89.5-152-68.5Z"/><path fill="#D9D9D9" d="M.2 276.6v158l152-68.5-152-89.5Z"/><path fill="#0047A6" d="M.2 276.6v158l152-68.5-152-89.5Z"/><path fill="#585858" d="M.2 351.2h71.5a6 6 0 0 1 6 6v193.7a6 6 0 0 1-6 6H.2V351.2ZM399.6-8.1v6a6 6 0 0 1-6 6H223.9a6 6 0 0 1-6-6v-6h181.8ZM12.1 1225.8l2.8-4.9a6 6 0 0 1 8.2-2.2l77.5 44.7a6 6 0 0 1 2.2 8.1l-2.9 5-87.8-50.7Zm93 53.7 2.8-5a6 6 0 0 1 8.1-2.1l77.5 44.6a6 6 0 0 1 2.2 8.2l-2.8 4.9-87.9-50.6ZM198 1333l2.8-4.9a6 6 0 0 1 8.2-2.2l77.5 44.7a6 6 0 0 1 2.1 8.1l-2.8 5L198 1333Z"/><path stroke="#A1000F" stroke-linejoin="round" stroke-width="3.9" d="m-2.8 1126.2 313 181.9v93.9"/><path stroke="#D87000" stroke-width="2.5" d="M2322.4 725.3a25.3 25.3 0 1 1 0-50.7 25.3 25.3 0 0 1 0 50.7ZM2322.4 230.4a25.3 25.3 0 1 1 0-50.7 25.3 25.3 0 0 1 0 50.7ZM2322.4 477.9a25.3 25.3 0 1 1 0-50.7 25.3 25.3 0 0 1 0 50.7Z"/><path fill="#A1000F" d="M1824.6-9.5h-12v1419h12V-9.6Z"/><path fill="#555" d="M1907.6 564.6v266.7l231-133.3-231-133.4Z"/><path fill="#262626" d="m1793.7 463 47.7 82.7L1924 498l-47.7-82.7-82.6 47.7Zm493 189.2h-95.4v95.4h95.3v-95.4Zm-410.4 332.3L1924 902l-82.6-47.7-47.7 82.6 82.6 47.7Z"/><path stroke="#A1000F" stroke-width="4.9" d="M1860.4 960.5 2274 721.7v-47.5l-413.6-235.8-41.1 23.8v474.5l41.1 23.8Z"/><path fill="#555" d="m1827.4 467.7 36.1-20.9a6 6 0 0 1 8.2 2.2L2001 673.1h258.8a6 6 0 0 1 6 6v41.7a6 6 0 0 1-6 6H2001l-129.3 224a6 6 0 0 1-8.2 2.3l-36.1-21a6 6 0 0 1-2.2-8l129.4-224.2-129.4-224a6 6 0 0 1 2.2-8.2Z"/><path stroke="#fff" stroke-linejoin="round" stroke-width="3.9" d="M2489.3 71v1332.5"/><path stroke="#A1000F" stroke-linejoin="round" stroke-width="3.9" d="M2811.3 71h-554.5V-3.7"/><path fill="#292929" d="m2659.3 366 152 68.6v38.8l-152 68.5V366.1Z"/><path fill="#D9D9D9" d="M2811.3 473.4v158l-152-89.5 152-68.5Z"/><path fill="#A1000F" d="M2811.3 473.4v158l-152-89.5 152-68.5Z"/><path fill="#D9D9D9" d="M2811.3 276.6v158l-152-68.5 152-89.5Z"/><path fill="#A1000F" d="M2811.3 276.6v158l-152-68.5 152-89.5Z"/><path fill="#585858" d="M2811.3 351.2h-71.5a6 6 0 0 0-6 6v193.7a6 6 0 0 0 6 6h71.5V351.2ZM2411.8-8.1v6a6 6 0 0 0 6 6h170a6 6 0 0 0 5.9-6v-6h-181.9Zm387.6 1233.9-2.9-4.9a6 6 0 0 0-8.1-2.2l-77.5 44.7a6 6 0 0 0-2.2 8.1l2.9 5 87.8-50.7Zm-93 53.7-2.8-5a6 6 0 0 0-8.2-2.1L2618 1317a5.8 5.8 0 0 0-2.8 3.7c-.2.7-.3 1.5-.2 2.3.1.8.4 1.5.8 2.2l2.8 4.9 87.8-50.6Zm-93 53.6-2.8-4.9a6 6 0 0 0-8.1-2.2l-77.5 44.7a6 6 0 0 0-2.2 8.1l2.9 5 87.8-50.7Z"/><path stroke="#0047A6" stroke-linejoin="round" stroke-width="3.9" d="m2814.3 1126.2-313 181.9v93.9"/><path stroke="#fff" stroke-linejoin="round" stroke-width="5.9" d="M-5.8-9.5v1226.7l333.9 192.2h2155.3l333.9-192.3V-9.4H-5.7Z"/></g><defs><clipPath id="a"><path fill="#fff" d="M0 0h2812v1398H0z"/></clipPath></defs></svg>